<?xml version="1.0" encoding="UTF-8" standalone="no"?>
<!-- Created with Inkscape (http://www.inkscape.org/) -->

<svg
   width="80.599167mm"
   height="48.832489mm"
   viewBox="0 0 80.599167 48.832489"
   version="1.1"
   id="svg5"
   inkscape:version="1.1.2 (b8e25be833, 2022-02-05)"
   xmlns:inkscape="http://www.inkscape.org/namespaces/inkscape"
   xmlns:sodipodi="http://sodipodi.sourceforge.net/DTD/sodipodi-0.dtd"
   xmlns="http://www.w3.org/2000/svg"
   xmlns:svg="http://www.w3.org/2000/svg">
  <sodipodi:namedview
     id="namedview7"
     pagecolor="#ffffff"
     bordercolor="#666666"
     borderopacity="1.0"
     inkscape:pageshadow="2"
     inkscape:pageopacity="0.0"
     inkscape:pagecheckerboard="0"
     inkscape:document-units="mm"
     showgrid="false"
     fit-margin-top="0"
     fit-margin-left="0"
     fit-margin-right="0"
     fit-margin-bottom="0"
     width="80.59917mm"
     inkscape:zoom="1.5554293"
     inkscape:cx="72.970209"
     inkscape:cy="49.504018"
     inkscape:window-width="2560"
     inkscape:window-height="1377"
     inkscape:window-x="-8"
     inkscape:window-y="-8"
     inkscape:window-maximized="1"
     inkscape:current-layer="layer1-0" />
  <defs
     id="defs2">
    <style
       id="style1100">.cls-1{fill:none;stroke:#fff;stroke-miterlimit:10;}</style>
  </defs>
  <g
     inkscape:label="Calque 1"
     inkscape:groupmode="layer"
     id="layer1"
     transform="translate(-48.99423,-108.80355)">
    <g
       inkscape:label="Calque 1"
       id="layer1-9"
       transform="translate(17.501759,21.535007)"
       style="fill:#2e2e2e;fill-opacity:1">
      <g
         inkscape:label="Calque 1"
         id="layer1-0"
         transform="translate(-15.430923,9.7972383)"
         style="fill:#2e2e2e;fill-opacity:1">
        <path
           style="fill:#ffffff;fill-opacity:1;stroke-width:0.0983953"
           d="m 62.344077,125.5734 c -0.585524,-0.11035 -1.161177,-0.38452 -1.217811,-0.57995 -0.06285,-0.21688 1.492397,-1.83164 2.297424,-2.38534 2.14443,-1.47497 5.231089,-2.53746 8.22998,-2.83295 1.057434,-0.10422 2.541206,-0.0238 2.985056,0.16174 0.118447,0.0495 0.160222,0.0385 0.119784,-0.0316 -0.03415,-0.0592 -0.629121,-0.34995 -1.322154,-0.64601 -1.979142,-0.84547 -3.718773,-1.7274 -5.741327,-2.91065 -1.468427,-0.85906 -1.950429,-1.09442 -2.253485,-1.10039 -0.373742,-0.007 -0.387347,0.004 -0.445483,0.37732 -0.07337,0.47091 -0.245249,0.61998 -1.039249,0.90126 -1.224622,0.43383 -4.486377,0.36993 -6.651606,-0.1303 -2.081914,-0.48101 -5.12372,-1.72642 -5.883263,-2.40879 -0.393013,-0.35308 -0.331104,-0.53214 0.320285,-0.92631 0.956381,-0.57873 1.416799,-0.66408 3.567496,-0.66126 3.581544,0.005 6.014819,0.53725 8.565567,1.87474 1.613326,0.84594 1.606607,0.69825 -0.02846,-0.62562 -1.612299,-1.30545 -2.25954,-1.91631 -4.312557,-4.07007 -0.995173,-1.04401 -1.994617,-2.02963 -2.220988,-2.19024 l -0.411581,-0.29205 -0.205666,0.27656 c -0.192916,0.25941 -0.252573,0.27649 -0.962281,0.27546 -1.013874,-0.001 -1.809644,-0.27073 -2.942142,-0.9955 -1.841613,-1.17858 -3.724334,-3.10257 -4.983741,-5.093 -0.549413,-0.8683 -0.495738,-0.98959 0.401178,-0.90647 2.695453,0.24978 6.338396,2.63025 8.155538,5.32921 0.496138,0.73691 0.750569,1.00618 0.750569,0.79436 0,-0.0315 -0.294987,-0.50153 -0.655527,-1.04436 -1.149247,-1.73025 -2.334277,-3.94978 -3.274055,-6.132229 -0.740147,-1.71884 -1.0101,-2.25489 -1.462294,-2.903738 -1.397062,-2.004599 -2.115715,-4.94131 -2.114377,-8.640198 7.61e-4,-2.110426 0.276094,-3.978127 0.772751,-5.241977 0.440759,-1.12161 0.686147,-0.240823 1.270277,4.559449 0.132972,1.09274 0.368055,2.972559 0.522406,4.177381 0.154353,1.204812 0.346616,2.986748 0.427252,3.959859 0.165967,2.002844 0.240677,2.430554 0.588913,3.371404 0.739769,1.998669 3.144965,6.264089 4.25409,7.544269 0.267028,0.3082 0.612155,0.7649 0.766951,1.01488 0.571874,0.9235 3.345673,3.74565 5.460197,5.55536 2.304618,1.97241 5.861966,4.15405 9.264737,5.68187 1.146201,0.51464 3.745757,1.47666 5.007625,1.85318 0.5488,0.16375 0.809102,0.36268 0.474574,0.36268 -0.100582,0 -0.656448,-0.11468 -1.235249,-0.25471 -0.578801,-0.1401 -1.119968,-0.25472 -1.202594,-0.25472 -0.155128,0 -0.280376,0.24572 -0.381007,0.74749 -0.199951,0.99698 -2.754343,2.73756 -5.419014,3.69252 -1.889152,0.67704 -2.472747,0.8596 -5.014954,0.89704 -1.254302,0.0184 -2.535801,-0.0958 -2.821783,-0.14955 z m 5.508675,-0.5461 c 3.031178,-0.68923 5.663019,-2.01518 6.965324,-3.50919 0.46457,-0.53297 0.518823,-0.78794 0.134278,-0.63108 -0.11574,0.0472 -0.980123,0.40698 -1.920851,0.79947 -2.996469,1.25023 -6.604095,2.43058 -6.604095,2.16074 0,-0.0445 0.887277,-0.38797 1.971727,-0.76319 3.132012,-1.08365 6.181227,-2.38229 6.270894,-2.67074 0.115917,-0.37287 -2.233818,-0.48603 -3.919076,-0.18876 -2.507123,0.44227 -5.209846,1.46903 -6.74663,2.56302 -0.977836,0.6961 -2.339188,2.10335 -2.189752,2.26358 0.02501,0.0268 0.31413,0.10855 0.642495,0.18168 0.407563,0.0907 1.169974,0.12208 2.402464,0.0988 1.508206,-0.0285 2.000982,-0.0787 2.993222,-0.30427 z m -4.700346,-8.72621 c 0.883956,-0.17521 1.721494,-0.71398 1.30828,-0.84159 -0.225659,-0.0697 -1.592373,-0.14833 -4.775874,-0.27484 -1.435005,-0.057 -2.707125,-0.13005 -2.826933,-0.1623 -0.520216,-0.13999 -0.12692,-0.1848 1.088579,-0.124 1.725435,0.0863 4.972993,0.0852 5.630262,-0.002 l 0.522627,-0.0693 -0.33258,-0.2272 c -0.839741,-0.5737 -3.538831,-1.42961 -5.178752,-1.64225 -1.334026,-0.17299 -4.640222,-0.14456 -5.321625,0.0457 -0.62727,0.17518 -1.295162,0.53825 -1.355462,0.73683 -0.05132,0.16904 2.030026,1.2401 3.220845,1.65745 0.816621,0.28619 3.182823,0.84641 3.978869,0.94201 0.757133,0.091 3.521452,0.0645 4.041764,-0.0386 z m -6.945266,-9.09288 c 0.163674,-0.12833 0.157945,-0.14768 -0.100616,-0.34005 -0.150796,-0.11216 -0.808678,-0.51686 -1.46196,-0.89925 -2.162477,-1.2658 -4.004684,-2.49634 -3.737192,-2.49634 0.05535,0 0.673,0.34896 1.372538,0.77546 1.584609,0.96609 3.885022,2.20839 3.885022,2.09801 0,-0.21589 -0.597942,-1.04807 -1.135482,-1.5803 -1.65011,-1.63383 -4.44378,-3.24117 -6.161889,-3.54527 -0.955279,-0.16908 -1.025763,-0.0688 -0.48752,0.69382 0.648172,0.91834 2.624475,2.99488 3.413835,3.58698 1.894759,1.42127 3.825279,2.16795 4.413264,1.70694 z M 51.566596,94.54026 c -0.470915,-2.135311 -0.851708,-4.57059 -0.689342,-4.408565 0.03157,0.03153 0.22757,0.948488 0.435554,2.037738 0.42023,2.200836 0.775629,3.614004 0.954687,3.796125 0.133673,0.135959 0.136832,0.176887 -0.246268,-3.191131 -0.510728,-4.490071 -1.085404,-8.860419 -1.236123,-9.400574 -0.08471,-0.303604 -0.210461,-0.101446 -0.456678,0.73431 -0.296887,1.007697 -0.435011,2.430732 -0.435011,4.481722 0,2.203279 0.305238,3.98023 1.016306,5.916464 0.319683,0.870498 0.917984,1.940362 0.959105,1.71505 0.01707,-0.0935 -0.118937,-0.850016 -0.30223,-1.681139 z m 55.240594,30.99031 c -1.73153,-0.34653 -4.27911,-1.35763 -5.73526,-2.27625 -1.311377,-0.8273 -2.137921,-1.80522 -2.144586,-2.53733 -0.0018,-0.19721 -0.05188,-0.22876 -0.358422,-0.22577 -0.195985,0.002 -0.697962,0.0903 -1.115504,0.19637 -0.745997,0.18955 -0.930827,0.19227 -0.754864,0.0108 0.04878,-0.0502 0.986655,-0.41181 2.08417,-0.80351 6.045646,-2.15776 10.917086,-5.26505 15.351426,-9.792 0.76067,-0.77656 1.74208,-1.88693 2.18091,-2.46749 0.43882,-0.58055 0.98961,-1.30773 1.22396,-1.61594 1.10581,-1.4543 2.92809,-4.75097 3.6751,-6.648599 0.49555,-1.25881 0.70269,-2.18228 0.70504,-3.143236 9.6e-4,-0.370103 0.19524,-2.318696 0.43185,-4.330203 0.83185,-7.072045 1.07612,-8.75399 1.32714,-9.13827 0.12246,-0.187452 0.13112,-0.185984 0.26854,0.04549 0.21621,0.364278 0.7202,2.149391 0.82391,2.918274 0.12048,0.89323 0.1196,3.532895 -0.002,5.013441 -0.20866,2.547194 -0.93158,4.745936 -2.0964,6.376134 -0.20342,0.2847 -0.74886,1.39157 -1.2121,2.45971 -1.02317,2.359319 -1.81751,3.865649 -3.11776,5.912329 -0.54292,0.85457 -0.94777,1.55377 -0.89966,1.55377 0.0481,0 0.39834,-0.43964 0.77831,-0.97696 1.9799,-2.79983 5.32994,-4.94094 8.14183,-5.20369 0.65197,-0.0609 0.68891,-0.0531 0.68891,0.14582 0,0.41105 -0.99682,1.81367 -2.22925,3.13674 -1.82839,1.96288 -3.72583,3.26825 -5.33063,3.66732 -0.7374,0.18336 -1.09977,0.12831 -1.55146,-0.23573 l -0.32171,-0.25928 -0.34312,0.19402 c -0.18873,0.10674 -1.05047,0.95055 -1.91503,1.87517 -1.79671,1.92157 -3.07241,3.12609 -4.75688,4.49144 -1.34401,1.08939 -1.33913,1.27801 0.0142,0.54922 1.12037,-0.60332 2.74731,-1.18464 4.31844,-1.54301 1.18468,-0.27022 1.34819,-0.28189 3.99096,-0.28499 l 2.75566,-0.004 0.64015,0.32515 c 0.35207,0.17882 0.75201,0.4451 0.88874,0.59171 0.23485,0.25181 0.23974,0.27706 0.0885,0.45624 -0.51198,0.60659 -3.46828,1.88154 -5.545,2.39135 -1.81538,0.44566 -3.13356,0.59057 -4.90954,0.53973 -2.29422,-0.0657 -3.20869,-0.41198 -3.29443,-1.24756 -0.0543,-0.52892 -0.37972,-0.45983 -1.90122,0.40357 -2.37623,1.34842 -4.54209,2.45323 -6.2071,3.16622 -1.643147,0.70362 -2.06329,0.9288 -1.469887,0.7878 0.181287,-0.0431 1.184827,-0.0776 2.230077,-0.0768 1.71519,0.001 2.01806,0.029 3.10676,0.28217 2.72276,0.63328 5.43462,1.90699 6.95606,3.26712 0.53662,0.47973 1.1974,1.3397 1.1974,1.55837 0,0.0822 -0.20312,0.24967 -0.45136,0.37221 -0.42407,0.20934 -0.60364,0.40452 -2.96947,0.42452 -1.83734,0.0155 -2.71212,-0.19802 -3.23575,-0.30276 z m 4.80919,-0.20798 c 0.39504,-0.0307 0.82552,-0.0995 0.95664,-0.15292 l 0.23841,-0.0972 -0.19617,-0.2954 c -0.88794,-1.33707 -3.11364,-2.8021 -5.57201,-3.66766 -1.66104,-0.58484 -2.96205,-0.83092 -4.75056,-0.89852 -1.65267,-0.0625 -2.417207,0.006 -2.417207,0.21736 0,0.33173 4.143397,2.03966 7.577607,3.12354 0.74174,0.23411 0.99506,0.40011 0.61056,0.40011 -0.52998,0 -4.65666,-1.41191 -7.00037,-2.39512 -1.916409,-0.80395 -1.974081,-0.79831 -1.169257,0.11409 0.951347,1.07856 2.449667,1.95733 4.666547,2.73694 2.66049,0.93562 4.20544,1.1359 7.05581,0.91471 z m 4.27048,-8.96149 c 1.23673,-0.19763 3.07432,-0.69088 4.22547,-1.13421 1.04312,-0.40173 2.5022,-1.15646 2.54384,-1.31584 0.0154,-0.0587 -0.30925,-0.29948 -0.72134,-0.53491 l -0.74925,-0.42806 h -2.17673 c -1.19722,0 -2.53909,0.0475 -2.98195,0.10566 -2.07195,0.27189 -5.65032,1.51547 -5.33467,1.85393 0.14364,0.154 3.49573,0.21534 5.4797,0.10025 0.88846,-0.0515 1.65065,-0.0604 1.69374,-0.0197 0.14336,0.13532 -0.52591,0.19538 -3.92678,0.35239 -3.81121,0.17594 -4.05664,0.2018 -3.89523,0.41031 0.1741,0.22494 0.90494,0.56841 1.39911,0.65754 0.79021,0.14252 3.43198,0.11433 4.44409,-0.0473 z m 4.31753,-9.22424 c 0.86487,-0.35762 2.06812,-1.14275 3.175,-2.07168 1.34042,-1.12495 3.18348,-3.33122 3.0708,-3.67597 -0.0539,-0.16468 -0.78544,-0.0658 -1.63027,0.22034 -2.2741,0.77026 -4.76148,2.48126 -5.96837,4.10551 -0.30182,0.40619 -0.52564,0.76333 -0.49736,0.79366 0.0743,0.0797 2.57154,-1.25663 4.04415,-2.16394 1.18951,-0.7329 1.54188,-0.89855 1.1622,-0.54634 -0.27154,0.25188 -2.25951,1.52231 -3.56677,2.27938 -1.4576,0.84413 -1.79608,1.1131 -1.58881,1.2625 0.27571,0.19872 1.03423,0.113 1.79943,-0.20346 z m 3.04232,-11.562765 c 0.45341,-0.995122 0.98872,-2.688631 1.16454,-3.684222 0.0816,-0.461802 0.12269,-1.634048 0.12269,-3.496598 0,-2.658101 -0.0114,-2.841113 -0.2237,-3.566049 -0.12304,-0.420285 -0.28953,-0.900703 -0.36998,-1.067577 -0.13706,-0.284314 -0.15082,-0.290247 -0.21845,-0.09423 -0.17955,0.520407 -1.52125,11.318588 -1.50817,12.138002 l 0.008,0.486086 0.14453,-0.356011 c 0.18961,-0.467073 0.73306,-2.789415 0.98704,-4.217938 0.22656,-1.274366 0.26474,-1.434923 0.32568,-1.369579 0.0799,0.08568 -0.24976,2.16389 -0.62758,3.956728 -0.55523,2.634544 -0.52182,2.416123 -0.34578,2.260945 0.0833,-0.07341 0.32689,-0.518686 0.54144,-0.989573 z"
           id="path1346"
           sodipodi:nodetypes="csccssssccscsscsssccscsscsscscsssssssssssscsssccccsscscscsscscccsccsccsccsscccsccscscscssscsssscsssscssccccssssccscscscssscsssscccsssccssssccsscccsssccccccsscsssscscccscscscsccscsccccccsssssscccscssccssscscc" />
        <g
           id="Calque_1-2"
           data-name="Calque 1"
           transform="matrix(0.26458333,0,0,0.26458333,62.205482,78.001111)"
           style="fill:#ffffff;fill-opacity:1">
          <path
             class="cls-1"
             d="m 46.26,1.34 c 0,0 43.08,49.89 54.74,53.86 C 112.66,59.17 153.15,5.87 152.3,1.34 151.45,-3.19 127,26.85 108.62,26.28 90.24,25.71 46.82,-4.9 46.26,1.34 Z"
             id="path1104"
             style="fill:#ffffff;fill-opacity:1" />
          <path
             class="cls-1"
             d="m 41.645271,7.1954533 c 0,0 20.69,25.7899997 18.42,31.7499997 -2.27,5.96 -3.68,16.15 -55.2700004,42 0,0 -7.66,7.37 21.5400004,0 29.2,-7.37 64.35,-18.16 63.78,-23.86 -0.57,-5.7 -62.65,-65.7699997 -48.47,-49.8899997 z"
             id="path1106"
             style="fill:#ffffff;fill-opacity:1" />
          <path
             class="cls-1"
             d="m 21.88,93.46 c 0,0 46.2,-2.55 55.56,3.41 9.36,5.96 10.77,23 15.31,55.84 0,0 7.93,16.44 1.13,-13.33 0,0 -5.39,-6.51 8.22,-74.26 0,0 4.25,-5.11 -5.67,1.13 -9.92,6.24 -29.43,20.69 -75.68,23.81 -46.25,3.12 1.13,3.4 1.13,3.4 z"
             id="path1108"
             style="fill:#ffffff;fill-opacity:1" />
          <path
             class="cls-1"
             d="m 101.53,155.83 c 0,0 9.36,-48.76 28.92,-53 0,0 20.69,0.56 33.45,4.82 0,0 -48.48,-33.74 -55.85,-42.52 -7.37,-8.78 -12.19,83.04 -6.52,90.7 z"
             id="path1110"
             style="fill:#ffffff;fill-opacity:1" />
          <path
             class="cls-1"
             d="m 110,60.3 c 0,0 52.15,37.7 57,44.79 4.85,7.09 1.14,-4.26 1.14,-4.26 0,0 -28.34,-23.83 -33.14,-32.03 -4.8,-8.2 4.52,-25.23 12.45,-36.8 7.93,-11.57 14.18,-22.44 12.76,-25 -1.42,-2.56 -8.79,9.35 -8.79,9.35 0,0 -22.42,28.07 -41.42,43.95 z"
             id="path1112"
             style="fill:#ffffff;fill-opacity:1" />
        </g>
      </g>
      <text
         xml:space="preserve"
         style="font-style:normal;font-weight:normal;font-size:14.1111px;line-height:0.85;font-family:sans-serif;fill:#2e2e2e;fill-opacity:1;stroke:none;stroke-width:0.264583"
         x="72.030434"
         y="73.030418"
         id="text1991"><tspan
           sodipodi:role="line"
           style="font-style:normal;font-variant:normal;font-weight:600;font-stretch:normal;font-size:14.1111px;font-family:'Cormorant Garamond';-inkscape-font-specification:'Cormorant Garamond Semi-Bold';text-align:center;text-anchor:middle;fill:#2e2e2e;fill-opacity:1;stroke-width:0.264583"
           x="72.030434"
           y="73.030418"
           id="tspan1993" /><tspan
           sodipodi:role="line"
           style="font-style:normal;font-variant:normal;font-weight:600;font-stretch:normal;font-size:14.1111px;font-family:'Cormorant Garamond';-inkscape-font-specification:'Cormorant Garamond Semi-Bold';text-align:center;text-anchor:middle;fill:#2e2e2e;fill-opacity:1;stroke-width:0.264583"
           x="72.030434"
           y="85.024857"
           id="tspan9385" /></text>
    </g>
  </g>
</svg>
