<?xml version="1.0" encoding="UTF-8" standalone="no"?>
<!-- Created with Inkscape (http://www.inkscape.org/) -->

<svg
   width="70.924675mm"
   height="36.962181mm"
   viewBox="0 0 70.924675 36.962181"
   version="1.1"
   id="svg5"
   inkscape:version="1.1.2 (b8e25be833, 2022-02-05)"
   xmlns:inkscape="http://www.inkscape.org/namespaces/inkscape"
   xmlns:sodipodi="http://sodipodi.sourceforge.net/DTD/sodipodi-0.dtd"
   xmlns="http://www.w3.org/2000/svg"
   xmlns:svg="http://www.w3.org/2000/svg">
  <sodipodi:namedview
     id="namedview7"
     pagecolor="#ffffff"
     bordercolor="#666666"
     borderopacity="1.0"
     inkscape:pageshadow="2"
     inkscape:pageopacity="0.0"
     inkscape:pagecheckerboard="0"
     inkscape:document-units="mm"
     showgrid="false"
     fit-margin-top="0"
     fit-margin-left="0"
     fit-margin-right="0"
     fit-margin-bottom="0"
     height="36.96218mm"
     inkscape:zoom="2.1997092"
     inkscape:cx="81.601695"
     inkscape:cy="7.2736887"
     inkscape:window-width="2560"
     inkscape:window-height="1377"
     inkscape:window-x="-8"
     inkscape:window-y="-8"
     inkscape:window-maximized="1"
     inkscape:current-layer="layer1" />
  <defs
     id="defs2" />
  <g
     inkscape:label="Calque 1"
     inkscape:groupmode="layer"
     id="layer1"
     transform="translate(-73.459475,-106.19364)">
    <path
       style="fill:#d89b83;fill-opacity:1;stroke-width:0.0846667"
       d="m 86.728009,142.08735 c -0.521709,-0.0917 -1.034623,-0.31953 -1.085085,-0.48193 -0.056,-0.18022 1.329745,-1.52206 2.047034,-1.98219 1.910715,-1.22567 4.660968,-2.10859 7.333019,-2.35413 0.942187,-0.0866 2.264247,-0.0198 2.659723,0.13441 0.105538,0.0411 0.14276,0.0319 0.106729,-0.0263 -0.03043,-0.0492 -0.560555,-0.29081 -1.178056,-0.53683 -1.763441,-0.70258 -3.313475,-1.43544 -5.115597,-2.4187 -1.308387,-0.71387 -1.737857,-0.90945 -2.007884,-0.91442 -0.333009,-0.006 -0.345131,0.003 -0.396931,0.31356 -0.06537,0.39132 -0.21852,0.51519 -0.925984,0.74893 -1.091154,0.36051 -3.99742,0.30741 -5.926667,-0.10829 -1.855012,-0.3997 -4.5653,-1.43461 -5.242063,-2.00165 -0.35018,-0.29341 -0.295018,-0.4422 0.285378,-0.76976 0.852148,-0.48092 1.262386,-0.55184 3.178685,-0.5495 3.191202,0.004 5.359281,0.44646 7.632031,1.55788 1.437494,0.70297 1.431507,0.58025 -0.02536,-0.51988 -1.43658,-1.08481 -2.01328,-1.59241 -3.842544,-3.38216 -0.886712,-0.86755 -1.77723,-1.68658 -1.978929,-1.82006 l -0.366724,-0.24269 -0.183251,0.22982 c -0.171891,0.21558 -0.225046,0.22977 -0.857405,0.22891 -0.903375,-10e-4 -1.612416,-0.22498 -2.621486,-0.82725 -1.640901,-0.97937 -3.31843,-2.57818 -4.440578,-4.23219 -0.489534,-0.72156 -0.441709,-0.82234 0.357455,-0.75327 2.401683,0.20756 5.647592,2.1857 7.266689,4.42849 0.442066,0.61236 0.668767,0.83612 0.668767,0.66009 0,-0.0262 -0.262837,-0.41676 -0.584083,-0.86783 -1.023994,-1.43782 -2.079871,-3.28222 -2.917225,-5.09579 -0.659481,-1.42833 -0.900012,-1.87379 -1.302923,-2.41296 -1.2448,-1.66579 -1.885129,-4.10615 -1.883937,-7.17988 6.78e-4,-1.75372 0.246003,-3.30576 0.688531,-4.356 0.392722,-0.93203 0.611366,-0.20011 1.131833,3.78884 0.11848,0.90805 0.327942,2.47015 0.465471,3.47133 0.13753,1.00118 0.308839,2.48195 0.380687,3.29059 0.147878,1.66433 0.214446,2.01974 0.524729,2.80157 0.659143,1.66088 2.802204,5.20537 3.790449,6.26917 0.237925,0.25612 0.545438,0.63563 0.683363,0.84335 0.509547,0.76743 2.981038,3.11259 4.865106,4.61643 2.053444,1.63903 5.223087,3.45195 8.255,4.72154 1.02128,0.42765 3.337518,1.22708 4.461864,1.53996 0.48899,0.13608 0.72092,0.30139 0.42285,0.30139 -0.0896,0 -0.5849,-0.0952 -1.100627,-0.21167 -0.515719,-0.11641 -0.997906,-0.21166 -1.071527,-0.21166 -0.138221,0 -0.249818,0.20418 -0.339482,0.62114 -0.178159,0.82849 -2.454155,2.27488 -4.828411,3.06844 -1.683259,0.5626 -2.252265,0.73385 -4.517404,0.76495 -1.1176,0.0154 -2.210416,-0.0992 -2.465231,-0.14381 z m 4.908301,-0.4538 c 2.700818,-0.57274 5.045823,-1.67458 6.206193,-2.91609 0.413938,-0.44288 0.462278,-0.65476 0.119644,-0.52442 -0.103126,0.0392 -0.873303,0.33819 -1.711503,0.66436 -2.669893,1.03892 -5.884334,2.01977 -5.884334,1.79554 0,-0.037 0.790575,-0.3224 1.756834,-0.6342 2.790663,-0.9005 5.507553,-1.97965 5.587447,-2.21934 0.103284,-0.30985 -1.99036,-0.4039 -3.491947,-0.15686 -2.233879,0.36752 -4.64204,1.22073 -6.011334,2.12983 -0.871265,0.57844 -2.084247,1.74785 -1.951097,1.881 0.02228,0.0223 0.279893,0.0902 0.572471,0.15097 0.363144,0.0754 1.042462,0.10145 2.140626,0.0821 1.343831,-0.0237 1.782901,-0.0654 2.667,-0.25284 z m -4.188069,-7.25135 c 0.787616,-0.1456 1.533873,-0.5933 1.165694,-0.69934 -0.201065,-0.0579 -1.418825,-0.12327 -4.255365,-0.22839 -1.278608,-0.0474 -2.412083,-0.10808 -2.518834,-0.13487 -0.463519,-0.11634 -0.113087,-0.15357 0.969938,-0.10305 1.537385,0.0717 4.431001,0.0708 5.016636,-0.002 l 0.465667,-0.0576 -0.296333,-0.18881 c -0.74822,-0.47672 -3.153144,-1.18797 -4.614334,-1.36468 -1.188635,-0.14374 -4.134498,-0.12013 -4.741637,0.038 -0.558906,0.14558 -1.154006,0.44728 -1.207734,0.6123 -0.04573,0.14047 1.808779,1.03051 2.869814,1.37731 0.72762,0.23783 2.835937,0.70335 3.545224,0.7828 0.674615,0.0756 3.137659,0.0536 3.601264,-0.0321 z m -6.188322,-7.55603 c 0.145836,-0.10664 0.140731,-0.12273 -0.08965,-0.28259 -0.134361,-0.0932 -0.720542,-0.42949 -1.302625,-0.74726 -1.926795,-1.05185 -3.568225,-2.07441 -3.329886,-2.07441 0.04932,0 0.599651,0.28997 1.222949,0.64438 1.411907,0.80282 3.461604,1.83514 3.461604,1.74343 0,-0.1794 -0.532774,-0.87094 -1.011729,-1.31321 -1.470269,-1.35768 -3.959465,-2.69336 -5.490322,-2.94606 -0.851166,-0.14051 -0.913968,-0.0572 -0.434387,0.57655 0.57753,0.76312 2.338441,2.48869 3.041771,2.98072 1.688255,1.18106 3.408373,1.80153 3.932275,1.41845 z M 77.125135,116.2993 c -0.419592,-1.77441 -0.758883,-3.7981 -0.614213,-3.66345 0.02813,0.0262 0.202768,0.78818 0.388084,1.69333 0.374431,1.82886 0.691096,3.00318 0.850639,3.15452 0.119104,0.11297 0.121919,0.14698 -0.219428,-2.65179 -0.455065,-3.73118 -0.967109,-7.36287 -1.101402,-7.81173 -0.07548,-0.25229 -0.187523,-0.0843 -0.406906,0.6102 -0.26453,0.83739 -0.3876,2.0199 -0.3876,3.72425 0,1.83089 0.271971,3.30751 0.905542,4.91649 0.284841,0.72337 0.817935,1.61241 0.854575,1.42518 0.01521,-0.0777 -0.105975,-0.70636 -0.269291,-1.397 z m 49.220095,25.75246 c -1.54283,-0.28796 -3.81275,-1.12817 -5.1102,-1.89154 -1.16845,-0.68747 -1.90492,-1.5001 -1.91086,-2.10848 -0.002,-0.16388 -0.0462,-0.19009 -0.31935,-0.18761 -0.17463,0.002 -0.6219,0.075 -0.99393,0.16319 -0.6647,0.15751 -0.82938,0.15977 -0.6726,0.009 0.0435,-0.0417 0.87913,-0.3422 1.85703,-0.66771 5.38674,-1.79306 9.72727,-4.37516 13.67831,-8.13698 0.67777,-0.64531 1.55222,-1.56802 1.94322,-2.05045 0.391,-0.48244 0.88176,-1.08671 1.09057,-1.34282 0.98529,-1.20851 2.60896,-3.94798 3.27456,-5.52488 0.44154,-1.04606 0.6261,-1.81345 0.6282,-2.61198 8.5e-4,-0.30756 0.17396,-1.92681 0.38478,-3.59833 0.74119,-5.87677 0.95884,-7.27443 1.1825,-7.59376 0.10911,-0.15578 0.11683,-0.15456 0.23927,0.0378 0.19265,0.30271 0.64171,1.78611 0.73412,2.42504 0.10735,0.74226 0.10656,2.93578 -0.001,4.16609 -0.18592,2.11668 -0.83005,3.9438 -1.86792,5.29847 -0.18125,0.23658 -0.66724,1.15637 -1.07999,2.04398 -0.91166,1.96056 -1.61943,3.21229 -2.77797,4.91305 -0.48375,0.71014 -0.84447,1.29116 -0.80161,1.29116 0.0429,0 0.35493,-0.36533 0.69349,-0.81184 1.76411,-2.32661 4.74904,-4.10584 7.25447,-4.32418 0.58092,-0.0506 0.61383,-0.0441 0.61383,0.12117 0,0.34158 -0.88818,1.50713 -1.98629,2.60658 -1.62912,1.63113 -3.31976,2.71587 -4.74966,3.04749 -0.65703,0.15237 -0.97991,0.10662 -1.38237,-0.19589 l -0.28665,-0.21546 -0.30572,0.16123 c -0.16815,0.0887 -0.93599,0.78989 -1.70632,1.55824 -1.60089,1.59679 -2.73756,2.59773 -4.23844,3.73231 -1.19753,0.90527 -1.19317,1.06201 0.0127,0.4564 0.99826,-0.50136 2.44788,-0.98442 3.84778,-1.28222 1.05558,-0.22455 1.20126,-0.23425 3.556,-0.23682 l 2.45533,-0.003 0.57038,0.27019 c 0.3137,0.1486 0.67005,0.36987 0.79188,0.4917 0.20925,0.20925 0.21362,0.23023 0.0789,0.37912 -0.45618,0.50408 -3.09028,1.56354 -4.94067,1.98718 -1.61753,0.37034 -2.79204,0.49076 -4.37446,0.44851 -2.04418,-0.0546 -2.85899,-0.34235 -2.93538,-1.0367 -0.0484,-0.43952 -0.33833,-0.38212 -1.69401,0.33535 -2.11725,1.12053 -4.04706,2.0386 -5.53061,2.63109 -1.46406,0.5847 -1.83842,0.77182 -1.30969,0.65464 0.16153,-0.0358 1.05569,-0.0645 1.98703,-0.0638 1.52825,0.001 1.79811,0.0241 2.76817,0.23447 2.42602,0.52626 4.84231,1.58469 6.19793,2.71494 0.47814,0.39865 1.0669,1.11327 1.0669,1.29497 0,0.0683 -0.18098,0.20748 -0.40217,0.30931 -0.37785,0.17395 -0.53785,0.36664 -2.64583,0.38325 -1.63709,0.0129 -2.41654,-0.19502 -2.88309,-0.28208 z m 4.28504,-0.17283 c 0.35198,-0.0255 0.73555,-0.0827 0.85238,-0.12708 l 0.21242,-0.0808 -0.17479,-0.24547 c -0.79116,-1.11109 -2.77429,-2.3285 -4.96473,-3.04778 -1.48,-0.48599 -2.63922,-0.69047 -4.23281,-0.74665 -1.47255,-0.0519 -2.15376,0.005 -2.15376,0.18063 0,0.27565 3.69182,1.69492 6.75175,2.59561 0.66089,0.19453 0.8866,0.33248 0.54402,0.33248 -0.47222,0 -4.14916,-1.17327 -6.23743,-1.9903 -1.70754,-0.66807 -1.75893,-0.66339 -1.04182,0.0949 0.84766,0.89627 2.18268,1.62651 4.15795,2.27435 2.37054,0.77748 3.7471,0.94392 6.28682,0.76012 z m 3.80505,-7.44686 c 1.10194,-0.16423 2.73926,-0.57411 3.76495,-0.94251 0.92943,-0.33384 2.22949,-0.96101 2.26659,-1.09344 0.0137,-0.0488 -0.27554,-0.24887 -0.64271,-0.4445 l -0.66759,-0.35571 h -1.93951 c -1.06673,0 -2.26236,0.0395 -2.65695,0.0878 -1.84614,0.22594 -5.03451,1.25933 -4.75326,1.54058 0.12798,0.12798 3.11474,0.17894 4.88248,0.0833 0.79163,-0.0428 1.47075,-0.0502 1.50915,-0.0164 0.12774,0.11245 -0.4686,0.16236 -3.49882,0.29282 -3.39583,0.14621 -3.6145,0.16769 -3.4707,0.34097 0.15513,0.18691 0.80632,0.47234 1.24663,0.5464 0.70409,0.11844 3.05794,0.0951 3.95974,-0.0393 z m 3.84698,-7.6652 c 0.77061,-0.29717 1.84272,-0.9496 2.82896,-1.72154 1.19433,-0.9348 2.83652,-2.76819 2.73612,-3.05466 -0.048,-0.13686 -0.69983,-0.0547 -1.45259,0.1831 -2.02625,0.64006 -4.24254,2.06189 -5.31789,3.4116 -0.26893,0.33755 -0.46835,0.63433 -0.44316,0.65952 0.0662,0.0662 2.29128,-1.04423 3.60339,-1.7982 1.05988,-0.60903 1.37385,-0.74668 1.03554,-0.454 -0.24195,0.20931 -2.01324,1.26502 -3.17804,1.89414 -1.29874,0.70146 -1.60033,0.92497 -1.41565,1.04912 0.24566,0.16513 0.92151,0.0939 1.60332,-0.16908 z m 2.71074,-9.60848 c 0.404,-0.82692 0.88096,-2.2342 1.03763,-3.06152 0.0727,-0.38376 0.10931,-1.35787 0.10931,-2.90563 0,-2.20883 -0.0102,-2.36092 -0.19932,-2.96333 -0.10963,-0.34925 -0.25797,-0.74846 -0.32966,-0.88714 -0.12212,-0.23626 -0.13438,-0.24119 -0.19464,-0.0783 -0.15998,0.43245 -1.35545,9.40557 -1.3438,10.08649 l 0.007,0.40393 0.12877,-0.29584 c 0.16894,-0.38814 0.65316,-2.31796 0.87946,-3.50504 0.20187,-1.05898 0.23589,-1.1924 0.29019,-1.1381 0.0712,0.0712 -0.22254,1.79816 -0.55919,3.28798 -0.49471,2.18925 -0.46494,2.00776 -0.30809,1.8788 0.0742,-0.061 0.29126,-0.43102 0.48243,-0.82232 z"
       id="path836"
       sodipodi:nodetypes="csccccssccssscccscsccccscsssscccssscscsssscsssccccsccscsscccccccccccccsccsccccsccssscccssccscsccsscccsccccssscsccscscscssscscssccsscsccsscsccsssccssssccsccsscsssscssssscscscscsscssscsccsssssscccssssccssssscc" />
  </g>
</svg>
